<svg xmlns="http://www.w3.org/2000/svg" style="color:rgb(255 255 255)" width="24" height="24" stroke="currentColor"><path d="M13 24h-2v-4.829a5.834 5.834 0 0 1-1.951-.895c-.5.15-1.019.225-1.549.225-3.033 0-5.5-2.505-5.5-5.584 0-1.283.421-2.494 1.197-3.477A4.271 4.271 0 0 1 2.9 7.875c0-2.025 1.403-3.721 3.298-4.12C7.24 1.485 9.499 0 12 0c2.501 0 4.761 1.485 5.803 3.756 1.894.398 3.297 2.094 3.297 4.119 0 .54-.102 1.07-.296 1.565A5.574 5.574 0 0 1 22 12.917c0 3.079-2.468 5.584-5.5 5.584a5.387 5.387 0 0 1-1.545-.224 5.52 5.52 0 0 1-1.955.908V24zm-3.45-8.081c.948 1.371 2.191 1.384 2.506 1.384.341 0 1.567-.075 2.395-1.384.701.416 2.891 1.161 4.494-.438 1.389-1.392 1.615-4.14-.617-5.726 1.118-1.212.803-2.311.567-2.824-.343-.748-1.085-1.334-2.524-1.293C15.955 3.658 13.909 2 12 2c-1.894 0-3.986 1.616-4.37 3.638-1.245-.028-2.052.523-2.368 1.007-.325.5-.667 1.812.41 3.11-2.188 1.862-1.99 4.352-.616 5.726 1.866 1.864 4.011.648 4.494.438z"/></svg>